<svg version="1.2" xmlns="http://www.w3.org/2000/svg" viewBox="0 0 25 25" width="25" height="25">
	<title>facebook-svg</title>
	<style>
		.s0 { fill: #1877f2 } 
		.s1 { fill: #ffffff } 
	</style>
	<g id="Layer">
		<path id="Layer" class="s0" d="m25 12.5c0 6.2-4.6 11.4-10.5 12.3v-8.7h2.9l0.5-3.6h-3.4v-2.3c0-1 0.4-2 2-2h1.6v-3.1c0 0-1.5-0.2-2.8-0.2-2.9 0-4.8 1.7-4.8 4.8v2.8h-3.1v3.6h3.1v8.7c-5.9-0.9-10.5-6.1-10.5-12.3 0-6.9 5.6-12.5 12.5-12.5 6.9 0 12.5 5.6 12.5 12.5z"/>
		<path id="Layer" class="s1" d="m14.5 16.1v8.7q-1 0.2-2 0.2-1 0-2-0.2v-8.7h-3.1v-3.6h3.1v-2.8c0-3.1 1.9-4.8 4.8-4.8 1.3 0 2.8 0.2 2.8 0.2v3.1h-1.6c-1.6 0-2 1-2 2v2.3h3.4l-0.5 3.6z"/>
	</g>
</svg>